<?xml version="1.0" encoding="utf-8"?>
<!-- Illustrated by Codify Design Studio: http://codifydesign.com -->
<svg version="1.1" xmlns="http://www.w3.org/2000/svg" xmlns:xlink="http://www.w3.org/1999/xlink" x="0px" y="0px" viewBox="0 0 85 135" style="enable-background:new 0 0 85 135;" xml:space="preserve">
	 <style type="text/css"><![CDATA[
		path { fill: #ffffff; }
	]]></style>
	<path d="M15.1, 46.7c-2.2, 0-4.1-1.4-4.8-3.6c-0.8-2.6, 0.7-5.4, 3.4-6.2l52.5-15.6c2.6-0.8, 5.4, 0.7, 6.2, 3.4 c0.8, 2.6-0.7, 5.4-3.4, 6.2L16.5, 46.4C16, 46.6, 15.5, 46.7, 15.1, 46.7z"/>
	<path d="M67.3, 10.3c-0.6-2-2.2-3.3-4.1-3.5c-0.1, 0-0.1, 0-0.2-0.1L38.4, 2.1c-2.7-0.5-5.3, 1.3-5.8, 4 c-0.4, 2.2, 0.7, 4.4, 2.6, 5.4c0.4, 0.2, 0.9, 0.4, 1.4, 0.5l4.7, 0.9l-29.5, 8.7c-2.6, 0.8-4.2, 3.6-3.4, 6.2c0.6, 2.2, 2.6, 3.6, 4.8, 3.6
		c0.5, 0, 1-0.1, 1.4-0.2L64, 16.5C66.6, 15.7, 68.1, 12.9, 67.3, 10.3z" />
	<path d="M74.8, 55.8c-0.6-2.7-3.3-4.3-6-3.7c-0.9, 0.2-21.6, 5.3-22.3, 22.3c0, 0, 0, 0.1, 0, 0.1c-1.9, 0-3.9, 0-5.8, 0 c0-0.1, 0-0.2, 0-0.4c-0.3-7.7-4.7-13.1-9.4-16.8l39.9-11.8c2.6-0.8, 4.2-3.6, 3.4-6.2c-0.8-2.6-3.6-4.2-6.2-3.4L17.9, 50.9 c-0.1, 0-0.3, 0.1-0.4, 0.2c-2.1, 0.1-3.9, 1.5-4.5, 3.6c-0.8, 2.7, 0.8, 5.4, 3.4, 6.2c0.1, 0, 14.2, 4.1, 14.2, 13.7c-5.2, 0-9.2, 0-10.1, 0h-2.8 v12.6c0, 4.2, 6.3, 9.4, 10.4, 12.1l-0.1, 15.4c0, 3.7, 9.7, 15.5, 13.7, 15.5l5.8-0.1c4, 0, 11.9-11.4, 11.9-14.9V99.4 c10.2-5.1, 10.7-11, 10.8-12.2c0.1-5.1, 0.2-4.6, 0.2-9v-3.8l-2.7-0.1c-0.1, 0-4.9, 0-11.3, 0.1c0-9.2, 14.3-12.6, 14.6-12.6 C73.8, 61.2, 75.4, 58.5, 74.8, 55.8z M50.6, 123.7H38.2c-1.2-1.2-2.5-2.7-3.6-4.1l19.1, 0C52.8, 121, 51.7, 122.4, 50.6, 123.7z M55.8, 115.2 c0, 0.2-0.1, 0.4-0.2, 0.7l-23.5, 0c-0.2-0.4-0.4-0.8-0.4-1.1l24.1-4.3V115.2z M55.8, 107.7L31.8, 112v-2.7l24.1-4.3V107.7z M55.8, 102.2 l-24.1, 4.3V101c8.4-0.1, 20-0.1, 24.1, 0.1V102.2z M64.9, 79.3c-0.1, 1.8-0.1, 5-0.1, 7.9c0, 2.5-5.1, 6-8.8, 7.8H32.1 c-4.5-2.8-8.8-5-8.8-7.8v-7.9C31.9, 79.4, 56.4, 79.4, 64.9, 79.3z" />
</svg>
