<?xml version="1.0" encoding="utf-8"?>
<!-- Illustrated by Codify Design Studio: http://codifydesign.com -->
<svg version="1.1" xmlns="http://www.w3.org/2000/svg" xmlns:xlink="http://www.w3.org/1999/xlink" x="0px" y="0px" viewBox="0 0 85 135" style="enable-background:new 0 0 85 135;" xml:space="preserve">
	 <style type="text/css"><![CDATA[
		path, rect { fill: #ffffff; }
	]]></style>
	<rect x="40.9" y="80.7" class="st1" width="1.8" height="13.1" />
	<rect x="44.6" y="80.7" class="st1" width="1.8" height="13.1" />
	<path d="M42.5, 7.1C21.3, 7.1, 4, 24.4, 4, 45.6c0, 6.2, 1.5, 12.2, 4.4, 17.8l0.1, 0.1c0.1, 0.2, 11.7, 18.9, 13, 27.3 c0.2, 1.3, 0.3, 2.4, 0.5, 3.3c0.8, 6.2, 1.6, 7.3, 6.4, 7.4v13.7c0, 3.7, 9.7, 15.5, 13.7, 15.5l5.8-0.1c4, 0, 11.9-11.4, 11.9-14.9v-14.2 c3.3-0.1, 4-0.9, 4.4-4.4c0.2-1.5, 0.5-3.8, 1.4-7.3c2.9-10.9, 11.8-28, 11.9-28.2c2.3-5.1, 3.5-10.5, 3.5-16C81, 24.4, 63.7, 7.1, 42.5, 7.1z M50.1, 60.4v3c0, 2.1-1.7, 3.7-3.7, 3.7h-5.1c-2.1, 0-3.7-1.7-3.7-3.7v-3H50.1z M37.5, 56.5v-14c0-2.1, 1.7-3.7, 3.7-3.7h5.1 c2.1, 0, 3.7, 1.7, 3.7, 3.7v14H37.5z M45.9, 69.9v5h-4.1v-5H45.9z M41.4, 77.7h4.9c2.1, 0, 3.7, 1.7, 3.7, 3.7v12.4c0, 1.4-0.1, 2.8-0.1, 3.7 H37.8c0-0.2, 0-0.5, 0-0.8c0-0.8-0.1-1.8-0.1-2.9V81.4C37.7, 79.4, 39.4, 77.7, 41.4, 77.7z M50.8, 124.2H38.4c-1.2-1.2-2.5-2.7-3.6-4.1 l19.2-0.1C53.1, 121.4, 51.9, 122.9, 50.8, 124.2z M56, 115.7c0, 0.2, 0, 0.4-0.1, 0.6l-23.5, 0.1c-0.2-0.4-0.4-0.8-0.4-1.1L56, 111V115.7z  M56, 108.2L32, 112.5v-2.7l24.1-4.3V108.2z M32, 107v-5.5h24l0, 1.2L32, 107z M74.2, 60C73.8, 60.7, 65, 77.6, 62, 88.9 c-1, 3.8-1.3, 6.2-1.5, 7.8c-0.1, 0.4-0.1, 0.9-0.2, 1.2c-0.3, 0-0.8, 0-1.3, 0c-0.4, 0-0.8, 0-1.4, 0h-4.9c0.1-1, 0.1-2.2, 0.1-4V81.4 c0-2.7-1.7-5.1-4.1-6v-6c2.4-1, 4.1-3.3, 4.1-6V42.5c0-3.3-2.5-6.1-5.8-6.5c0-0.1, 0-0.3, 0-0.4c0-1.2-1-2.1-2.1-2.1h-2.4 c-1.2, 0-2.1, 1-2.1, 2.1c0, 0.1, 0, 0.3, 0, 0.4c-3.2, 0.4-5.7, 3.1-5.7, 6.4v20.9c0, 2.8, 1.8, 5.2, 4.4, 6.1v5.9c-2.4, 1-4.1, 3.3-4.1, 6v12.4 c0, 1.1, 0, 2.2, 0.1, 3c0, 0.3, 0, 0.6, 0, 0.9h-5.6c-1, 0-2.7, 0-3-0.2c-0.3-0.3-0.6-2.2-0.8-4c-0.1-1-0.3-2.1-0.5-3.4 c-1.4-9-12.6-27.2-13.5-28.6c-2.6-5-3.9-10.4-3.9-16c0-19.2, 15.6-34.8, 34.8-34.8c19.2, 0, 34.8, 15.6, 34.8, 34.8 C77.3, 50.6, 76.3, 55.5, 74.2, 60z" />
</svg>
