<?xml version="1.0" encoding="utf-8"?>
<!-- Illustrated by Codify Design Studio: http://codifydesign.com -->
<svg version="1.1" xmlns="http://www.w3.org/2000/svg" xmlns:xlink="http://www.w3.org/1999/xlink" x="0px" y="0px"
	 viewBox="0 0 85 135" style="enable-background:new 0 0 85 135;" xml:space="preserve">
	<style type="text/css"><![CDATA[
		path { fill: #ffffff; }
	]]></style>
	<path d="M42.5, 7.1C21.3, 7.1, 4, 24.4, 4, 45.6c0, 6.2, 1.5, 12.2, 4.4, 17.8l0.1, 0.1c0.1, 0.2, 11.7, 18.9, 13, 27.3 c0.2, 1.3, 0.3, 2.4, 0.5, 3.3c0.8, 6.2, 1.6, 7.3, 6.4, 7.4v13.7c0, 3.7, 9.7, 15.5, 13.7, 15.5l5.8-0.1c4, 0, 11.9-11.4, 11.9-14.9v-14.2 c3.3-0.1, 4-0.9, 4.4-4.4c0.2-1.5, 0.5-3.8, 1.4-7.3c2.9-10.9, 11.8-28, 11.9-28.2c2.3-5.1, 3.5-10.5, 3.5-16C81, 24.4, 63.7, 7.1, 42.5, 7.1z  M42.5, 10.8c19.2, 0, 34.8, 15.6, 34.8, 34.8c0, 0.3, 0, 0.5, 0, 0.8H7.7c0-0.3, 0-0.5, 0-0.8C7.7, 26.4, 23.3, 10.8, 42.5, 10.8z M55.8, 84.6 c-1.1, 4.3-1.5, 8.7-1.3, 13.2h-1.8h-0.6c-0.4-4.7-0.3-9.3, 0.4-13.8c0.6-4, 1.5-6.9, 2.5-9.9c1-3.4, 2.1-6.8, 2.8-11.8 c0.6-4.1, 0.7-8.2, 0.5-12.3H67c-0.3, 5-1.1, 9.9-2.6, 14.4c-1.3, 3.9-2.7, 6.7-4.1, 9.4C58.6, 77, 57, 80, 55.8, 84.6z M30.8, 84.1 c-1.2-4.6-2.7-7.6-4.4-10.8c-1.4-2.7-2.8-5.4-4.1-9.4c-1.4-4.4-2.3-9-2.6-13.9h8.6c-0.2, 4.1, 0, 8.2, 0.5, 12.3c0.7, 5, 1.8, 8.5, 2.8, 11.8 c0.9, 3.1, 1.8, 5.9, 2.5, 9.9c0.7, 4.4, 0.8, 9.1, 0.4, 13.8h-2.4C32.4, 93.1, 31.9, 88.5, 30.8, 84.1z M37.8, 83.5c-0.7-4.3-1.6-7.4-2.6-10.5 c-1-3.4-2-6.5-2.7-11.2C32, 57.9, 31.8, 54, 32.1, 50h9.1v47.8h-3C38.6, 93, 38.5, 88.2, 37.8, 83.5z M48.8, 83.5c-0.7, 4.6-0.9, 9.4-0.4, 14.3 h-3.5V50h9.7c0.2, 3.9, 0.1, 7.9-0.5, 11.8c-0.7, 4.7-1.6, 7.9-2.7, 11.2C50.4, 76.1, 49.5, 79.3, 48.8, 83.5z M26.4, 97.6 c-0.3-0.3-0.6-2.2-0.8-4c-0.1-1-0.3-2.1-0.5-3.4c-1.4-9-12.6-27.2-13.5-28.6C9.7, 57.9, 8.5, 54, 8, 50h8c0.3, 5.3, 1.2, 10.3, 2.8, 15 c1.4, 4.2, 2.9, 7.1, 4.3, 9.9c1.6, 3, 3, 5.8, 4.1, 10c1.1, 4.1, 1.4, 8.4, 1.2, 12.8C27.5, 97.8, 26.6, 97.8, 26.4, 97.6z M50.8, 124.2H38.4 c-1.2-1.2-2.5-2.7-3.6-4.1l19.2-0.1C53.1, 121.4, 51.9, 122.9, 50.8, 124.2z M56, 115.7c0, 0.2, 0, 0.4-0.1, 0.6l-23.5, 0.1 c-0.2-0.4-0.4-0.8-0.4-1.1L56, 111V115.7z M56, 108.2L32, 112.5v-2.7l24.1-4.3V108.2z M32, 107v-5.5h24l0, 1.2L32, 107z M62, 88.9 c-1, 3.8-1.3, 6.2-1.5, 7.8c-0.1, 0.4-0.1, 0.9-0.2, 1.2c-0.3, 0-0.8, 0-1.3, 0c-0.2, 0-0.5, 0-0.8, 0c-0.2-4.2, 0.2-8.4, 1.2-12.3 c1.1-4.2, 2.5-7, 4.1-10c1.5-2.8, 3-5.7, 4.3-9.9c1.6-4.9, 2.5-10.1, 2.8-15.5H77c-0.4, 3.4-1.4, 6.8-2.8, 9.9C73.8, 60.7, 65, 77.6, 62, 88.9z" />
</svg>
