<?xml version="1.0" encoding="utf-8"?>
<!-- Illustrated by Codify Design Studio: http://codifydesign.com -->
<svg version="1.1" xmlns="http://www.w3.org/2000/svg" xmlns:xlink="http://www.w3.org/1999/xlink" x="0px" y="0px" viewBox="0 0 85 135" style="enable-background:new 0 0 85 135;" xml:space="preserve">
	 <style type="text/css"><![CDATA[
		path { fill: #ffffff; }
	]]></style>
	<path d="M41.9, 7.1C20.6, 7.1, 3.4, 24.4, 3.4, 45.6c0, 6.2, 1.5, 12.2, 4.4, 17.8l0.1, 0.1c0.1, 0.2, 11.7, 18.9, 13, 27.3 c0.2, 1.3, 0.3, 2.4, 0.5, 3.3c0.8, 6.2, 1.6, 7.3, 6.4, 7.4v13.7c0, 3.7, 9.7, 15.5, 13.7, 15.5l5.8-0.1c4, 0, 11.9-11.4, 11.9-14.9v-14.2 c3.3-0.1, 4-0.9, 4.4-4.4c0.2-1.5, 0.5-3.8, 1.4-7.3c2.9-10.9, 11.8-28, 11.9-28.2c2.3-5.1, 3.5-10.5, 3.5-16C80.4, 24.4, 63.1, 7.1, 41.9, 7.1z M50.2, 124.2H37.8c-1.2-1.2-2.5-2.7-3.6-4.1l19.2-0.1C52.4, 121.4, 51.3, 122.9, 50.2, 124.2z M55.4, 115.7c0, 0.2, 0, 0.4-0.1, 0.6 l-23.5, 0.1c-0.2-0.4-0.4-0.8-0.4-1.1l24.1-4.3V115.7z M55.4, 108.2l-24.1, 4.3v-2.7l24.1-4.3V108.2z M31.3, 107v-5.5h24l0, 1.2 L31.3, 107z M35.7, 97.9V75.8h13.5v22.1C45.4, 97.9, 38.6, 97.9, 35.7, 97.9z M35.3, 72.4l-8.8-22.5c0.6, 0.2, 1.3, 0.4, 2, 0.4 c0.1, 0, 0.3, 0, 0.4, 0c1.9, 0, 3.7-0.8, 5.5-2.2c1.5, 1.4, 4.2, 3.2, 7.7, 3.4c0.2, 0, 0.4, 0, 0.7, 0c3, 0, 5.9-1.2, 8.7-3.6c1, 0.8, 2.5, 1.7, 4.5, 1.9 c0.1, 0, 0.3, 0, 0.4, 0c0.8, 0, 1.7-0.2, 2.5-0.5l-9, 23H35.3z M73.6, 60c-0.4, 0.7-9.2, 17.6-12.2, 28.9c-1, 3.8-1.3, 6.2-1.5, 7.8 c-0.1, 0.4-0.1, 0.9-0.2, 1.2c-0.3, 0-0.8, 0-1.3, 0c-0.4, 0-0.8, 0-1.4, 0h-4.9c0, 0-0.4, 0-1, 0V74l10.3-26.1c0.4-0.3, 0.7-0.6, 1.1-1 c0.7-0.7, 0.7-1.9, 0-2.6c-0.7-0.7-1.9-0.7-2.6, 0c-1.3, 1.3-2.6, 1.9-3.8, 1.9c-1.8-0.1-3.1-1.6-3.1-1.7c-0.2-0.3-0.5-0.5-0.8-0.6 c-0.7-0.4-1.6-0.3-2.2, 0.3c-2.6, 2.6-5.1, 3.8-7.7, 3.7c-3.8-0.2-6.5-3.4-6.5-3.5c-0.6-0.8-1.8-0.9-2.6-0.3c-0.2, 0.1-0.3, 0.3-0.4, 0.4 c-0.1, 0.1-0.2, 0.2-0.4, 0.3c-1.3, 1.3-2.6, 1.9-3.8, 1.9c-1.8-0.1-3.1-1.7-3.2-1.7c-0.6-0.8-1.8-0.9-2.6-0.3c-0.8, 0.6-0.9, 1.8-0.3, 2.6 c0.1, 0.1, 0.5, 0.6, 1.2, 1.2L33.9, 74v23.9h-5.1c-1, 0-2.7, 0-3-0.2c-0.3-0.3-0.6-2.2-0.8-4c-0.1-1-0.3-2.1-0.5-3.4 C23, 81.2, 11.8, 63, 10.9, 61.6c-2.6-5-3.9-10.4-3.9-16c0-19.2, 15.6-34.8, 34.8-34.8c19.2, 0, 34.8, 15.6, 34.8, 34.8 C76.7, 50.6, 75.6, 55.5, 73.6, 60z" />
</svg>
